<svg width="113" height="111" viewBox="0 0 113 111" fill="none" xmlns="http://www.w3.org/2000/svg">
<path fill-rule="evenodd" clip-rule="evenodd" d="M0 54.39H55.37V0H0V54.39ZM31.3575 8.1585C32.2615 10.2675 33.787 13.653 34.804 15.8175C35.7645 17.9265 38.533 24.087 40.906 29.415C46.6125 42.2355 47.46 43.7895 49.155 44.844C49.946 45.3435 50.624 45.732 50.624 45.732C50.6805 45.7875 50.9065 46.3425 51.076 47.0085L51.4715 48.285H34.465V46.8975C34.465 45.732 34.7475 45.51 36.16 45.51C37.516 45.51 37.855 45.288 37.855 44.3445C37.855 42.957 35.708 36.741 34.8605 35.631C34.465 35.1315 31.8095 34.965 25.086 34.965C16.272 34.965 15.82 35.0205 15.82 36.075C15.82 36.63 15.3115 38.406 14.69 39.96C13.108 43.9005 13.221 44.8995 15.255 45.288C16.5545 45.5655 16.95 45.954 16.95 46.953C16.95 48.285 16.8935 48.285 11.0175 48.285C5.424 48.285 5.085 48.2295 5.085 47.175C5.085 46.509 5.65 45.7875 6.3845 45.4545C6.44996 45.4259 6.51297 45.399 6.57386 45.3729L6.57425 45.3727C6.78998 45.2804 6.97916 45.1994 7.15704 45.0985C8.42452 44.3796 9.11841 42.6494 14.7566 28.5911L15.6505 26.3625C16.0584 25.334 16.4827 24.2637 16.9021 23.2058L16.9034 23.2025L16.9039 23.2014L16.9049 23.1988C18.2271 19.8635 19.5002 16.6522 20.0575 15.2625C20.3599 14.5084 20.7294 13.5756 21.1067 12.6229L21.1077 12.6203L21.1078 12.62L21.108 12.6196C21.6468 11.2593 22.2015 9.8587 22.6 8.88C22.8378 8.24285 23.0839 7.59757 23.3035 7.02191L23.3036 7.02159C23.6577 6.0931 23.9428 5.3458 24.0125 5.106C24.182 4.7175 25.312 4.44 27.007 4.44H29.7755L31.3575 8.1585ZM24.4645 14.5965C24.1255 15.2625 22.7695 18.7035 21.47 22.2C20.114 25.6965 18.8145 28.8045 18.5885 29.1375C18.306 29.415 18.08 30.081 18.08 30.636C18.08 31.524 18.758 31.635 25.4815 31.635H32.8265L32.431 30.3585C31.9225 28.749 26.781 16.65 25.8205 14.8185L25.0295 13.32L24.4645 14.5965ZM113 54.39H58.195V0H113V54.39ZM0 111H55.37V57.165H0V111ZM39.0415 61.605C40.9625 62.271 41.0755 62.382 41.6405 66.267C41.9795 68.4315 42.4315 70.596 42.6575 71.151C42.94 71.817 42.601 72.15 41.3015 72.4275C39.098 72.8715 38.646 72.594 38.194 70.3185C37.629 67.3215 35.1995 64.9905 32.092 64.4355C29.267 63.936 25.1425 64.4355 23.1085 65.5455C22.487 65.8785 21.583 66.9885 21.131 68.0985C20.34 69.8745 20.3965 70.2075 21.357 72.039C22.261 73.815 23.504 74.6475 30.6795 78.255C41.8665 83.916 44.635 86.691 44.635 92.463C44.635 97.6245 41.019 102.231 35.6515 104.062C31.9225 105.339 25.651 105.672 21.131 104.951C15.1985 103.952 13.56 103.341 13.56 102.009C13.56 101.399 13.1645 99.1785 12.5995 97.0695C12.091 94.9605 11.8085 93.129 11.9215 93.018C12.0345 92.907 12.8255 92.685 13.7295 92.463C15.0855 92.13 15.368 92.2965 15.82 93.6285C17.063 96.9585 18.3625 98.7345 20.566 100.122C22.4305 101.343 23.504 101.565 26.668 101.565C32.1485 101.565 35.143 99.8445 36.273 96.0705C37.4595 92.019 35.03 89.466 25.199 84.6375C16.385 80.3085 14.464 78.699 13.221 74.5365C12.3735 71.7615 12.3735 71.3175 13.2775 68.6535C14.5205 64.824 17.741 62.3265 22.8825 60.9945C25.2555 60.384 36.612 60.828 39.0415 61.605ZM113 111H58.195V57.165H113V111ZM101.982 66.045C101.587 63.159 101.078 62.5485 98.31 61.605C95.824 60.7725 85.202 60.384 82.151 61.05C77.6875 61.9935 73.0545 64.491 70.512 67.4325C66.896 71.595 65.0315 79.7535 66.0485 87.0795C67.1785 95.6265 71.19 101.288 77.8005 103.841C82.4335 105.617 91.191 105.672 95.033 103.951C98.5925 102.342 102.039 99.123 103.677 96.015L105.033 93.4065L103.621 92.7405C101.587 91.8525 101.361 91.9635 100.57 93.795C99.779 95.6265 96.4455 98.8455 93.9595 100.122C88.14 103.063 80.5125 100.289 77.292 94.128C73.224 86.358 73.902 74.259 78.648 68.598C83.846 62.382 94.92 62.3265 97.8015 68.487C98.3665 69.7635 98.875 71.262 98.875 71.8725C98.875 73.3155 99.892 74.37 100.909 74.037C101.135 73.9815 101.418 73.8982 101.7 73.815C101.982 73.7318 102.265 73.6485 102.491 73.593C103.112 73.371 103.169 72.816 102.83 70.929C102.587 69.7818 102.301 68.0172 102.083 66.6632C102.047 66.4451 102.014 66.2375 101.982 66.045ZM86.4447 48.285H83.1208V48.2117V47.6702C83.1208 47.3694 83.2435 43.7957 83.3935 39.7287C83.5434 35.6617 83.6661 32.2685 83.6661 32.1843C83.6661 32.1001 83.3798 32.0038 82.9845 31.9557C82.2621 31.8715 81.9486 31.6669 82.0849 31.3661C82.1394 31.2217 83.1617 30.5599 83.5298 30.4396C83.5843 30.4155 83.6797 30.1749 83.7342 29.8861C83.816 29.4409 83.7887 29.3807 83.5707 29.3807C83.1481 29.3807 82.0031 29.9222 81.0354 30.5719C79.5905 31.5466 78.909 31.7872 77.5323 31.7872C76.142 31.7872 75.7331 31.703 75.7876 31.4503C75.8558 31.1375 76.5373 30.8006 79.059 29.8139C80.3539 29.3085 81.935 28.6588 82.5756 28.37L83.7342 27.8526L83.7751 27.2148C83.816 26.6132 83.8024 26.6012 83.5025 26.6734C82.7528 26.8659 81.4034 27.4916 79.536 28.5144C76.8508 29.9823 75.7467 30.4757 74.8608 30.5479C74.1656 30.608 74.1111 30.596 73.6613 30.1989C73.3205 29.8981 73.1706 29.6334 73.1024 29.2243C72.9116 28.1173 73.4159 27.8285 77.028 26.9742C79.904 26.3004 81.4034 25.8913 82.8891 25.3859L83.9387 25.0369V24.4474V23.8578L83.4343 24.0142C83.1481 24.1104 81.5942 24.6519 79.9858 25.2174C75.3514 26.8779 73.9203 27.1667 73.2387 26.5531C72.6799 26.0717 72.8025 24.8685 73.4705 24.2428C74.002 23.7374 75.1197 23.4968 79.536 22.9433C81.9213 22.6304 83.8842 22.3657 83.9114 22.3537C83.925 22.3296 83.9796 22.0288 84.0341 21.6919C84.1159 21.0782 84.1022 21.0662 83.7887 21.1264C83.6115 21.1625 82.0168 21.4994 80.2584 21.8724C75.5968 22.847 74.002 22.8831 73.5113 22.0288C73.1161 21.355 73.3614 20.1277 73.9611 19.7787C74.3837 19.5381 75.5014 19.514 80.7082 19.6825L84.075 19.7787V19.1771V18.5755L83.2299 18.5153C82.7528 18.4912 81.417 18.5153 80.2584 18.5875C76.6191 18.792 75.5695 18.768 75.1197 18.4792C74.3564 17.9738 74.2337 16.7585 74.888 16.181C75.3923 15.7358 76.4828 15.808 80.0131 16.4938C81.6896 16.8187 83.3117 17.1315 83.6388 17.1676L84.2113 17.2519V16.6984C84.2113 16.1689 84.1976 16.1449 83.707 16.0366C82.5484 15.7598 81.7714 15.6515 79.6451 15.4229C76.6191 15.1101 76.1965 14.9416 76.0739 13.9429C76.0193 13.5579 76.0739 13.3653 76.2783 13.1367C76.7963 12.5712 77.8595 12.7397 82.0031 14.0632C83.1481 14.4362 84.1022 14.713 84.1295 14.6889C84.1568 14.6649 84.2113 14.4363 84.2522 14.1956L84.334 13.7504L83.4889 13.5097C83.0254 13.3774 82.0304 13.1247 81.2807 12.9442C79.6178 12.5471 78.3229 12.0297 77.9549 11.6086C77.6005 11.2236 77.5732 10.4655 77.9004 10.1887C78.3365 9.79168 79.6178 10.2248 82.7528 11.7891C83.5707 12.1982 84.2658 12.5351 84.2931 12.5351C84.334 12.5351 84.3476 12.2584 84.3203 11.9214L84.2794 11.3078L82.3575 10.6219C80.054 9.8037 79.7541 9.63526 79.4815 9.08176C79.2089 8.5042 79.3452 8.08305 79.795 8.08305C80.2857 8.08305 80.8445 8.31168 82.6438 9.27429C84.3067 10.1767 84.5384 10.2128 84.4566 9.57509C84.4157 9.26224 84.2385 9.14192 82.9164 8.54029C82.0986 8.15526 81.308 7.73411 81.1853 7.58972C80.8718 7.26484 80.8582 6.42256 81.1581 6.31426C81.4988 6.20597 81.935 6.44662 83.2435 7.48142L84.4839 8.46809V7.93866C84.4839 7.44532 84.4566 7.40923 83.8024 7.08434C82.9573 6.66321 82.5756 6.24206 82.5756 5.72466C82.5756 5.1471 82.8619 5.19523 83.7206 5.91719L84.4566 6.53085L84.5248 6.20597C84.5657 6.00142 84.4839 5.72466 84.3203 5.48401C84.0341 5.03881 84.0613 4.64173 84.4294 4.13636C84.702 3.77539 84.9882 3.79945 85.2336 4.23263C85.4925 4.67783 85.4925 5.20726 85.2336 5.50808C85.1245 5.6284 85.0291 5.92922 85.0291 6.16987V6.59101L85.7788 5.94125C86.8147 5.06287 87.3599 5.19524 86.8829 6.19394C86.7329 6.50678 86.4876 6.72337 85.8606 7.02418C85.0427 7.40923 85.0291 7.4333 85.0291 7.92664C85.0291 8.21542 85.07 8.44404 85.1109 8.44404C85.1654 8.44404 85.6834 8.03492 86.2831 7.54159C86.8692 7.03622 87.5644 6.54288 87.837 6.42256C88.3141 6.23004 88.3277 6.23004 88.5322 6.45866C88.7775 6.7715 88.6684 7.31297 88.2732 7.68598C88.1096 7.8424 87.3327 8.23949 86.5694 8.56436L85.1654 9.15395V9.64729C85.1654 9.91201 85.2063 10.1286 85.2472 10.1286C85.2881 10.1286 85.9832 9.77964 86.7874 9.3585C88.7775 8.29964 89.35 8.05899 89.7725 8.10712C90.086 8.14322 90.1405 8.20338 90.1814 8.60046C90.2223 9.00956 90.1542 9.12989 89.6908 9.51493C89.35 9.80371 88.7775 10.0925 88.1641 10.297C87.7516 10.4303 87.1609 10.6356 86.655 10.8114L86.6548 10.8115L86.4546 10.8811L86.2892 10.9384L86.1604 10.9829L85.1654 11.3559V11.9455C85.1654 12.2704 85.1927 12.5351 85.2472 12.5351C85.2881 12.5351 86.2559 12.0779 87.4008 11.5244C91.1219 9.69542 91.8853 9.58712 91.8853 10.8746C91.8853 11.3078 91.8035 11.4401 91.34 11.8252C90.7675 12.2944 90.1542 12.499 86.7329 13.3413L85.3699 13.6782L85.329 14.1956C85.3017 14.4844 85.3426 14.701 85.4244 14.701C85.5062 14.701 86.7465 14.328 88.205 13.8707C91.7626 12.7397 92.594 12.6193 93.2483 13.1127C93.5209 13.3172 93.5618 14.0512 93.3301 14.5084C93.0847 14.9777 92.4714 15.1462 90.0724 15.4109C87.7416 15.6636 86.7329 15.808 85.8197 16.0366L85.2745 16.1569L85.3699 16.6623C85.4244 16.939 85.4925 17.1797 85.5062 17.2037C85.5743 17.2759 87.8506 16.8668 89.9361 16.4216C91.0265 16.193 92.4305 15.9764 93.0711 15.9403C94.1615 15.8802 94.2706 15.8922 94.625 16.1569C95.361 16.7224 95.2247 18.1182 94.3933 18.5273C93.8889 18.768 92.7576 18.78 89.3909 18.5755C88.2323 18.5033 86.8692 18.4792 86.3649 18.5153L85.438 18.5875V19.1651V19.7546H86.4331C86.9646 19.7546 88.8866 19.6945 90.6858 19.6223C94.5977 19.4779 95.2793 19.526 95.8245 19.9953C96.1652 20.3082 96.2061 20.4164 96.2061 21.1384C96.2061 21.8724 96.1652 21.9686 95.7972 22.3056L95.3747 22.6665L93.9844 22.6184C92.9212 22.5703 91.8171 22.3898 89.3227 21.8724C87.5235 21.4994 85.9424 21.1625 85.8197 21.1264C85.6016 21.0662 85.5743 21.1504 85.5743 21.716V22.3657L86.0923 22.4379C94.1888 23.4607 94.9249 23.569 95.6745 23.9059C96.3152 24.2067 96.615 24.7482 96.615 25.6145C96.615 26.2763 96.5742 26.3846 96.247 26.6132C95.9199 26.8418 95.7563 26.8659 95.0475 26.8178C93.9707 26.7215 92.8667 26.3966 88.9411 25.0009C87.1691 24.3631 85.6697 23.8457 85.6425 23.8457C85.5471 23.8457 85.5607 24.4594 85.6697 24.7843C85.7106 24.9407 85.9015 25.1212 86.1059 25.1934C87.3054 25.6145 89.9361 26.3485 92.117 26.8659C95.1566 27.5879 95.6882 27.7563 96.138 28.1534C96.5605 28.5264 96.5878 29.2002 96.2061 29.862C95.8653 30.4636 95.511 30.6201 94.7204 30.5599C93.8481 30.4877 92.9075 30.0786 90.3859 28.7069C88.2732 27.5638 86.2422 26.6132 85.8878 26.6132C85.7652 26.6132 85.7106 26.8057 85.7106 27.2148V27.8165L86.9101 28.3459C87.5644 28.6347 89.1728 29.2845 90.4813 29.8019C92.8394 30.7284 93.8889 31.2337 93.8889 31.4503C93.8889 31.6789 93.0847 31.8113 91.8444 31.7632C90.345 31.703 90.0179 31.5827 88.4367 30.5118C87.3872 29.8139 86.5148 29.3927 86.0923 29.3807C85.9015 29.3807 85.8469 29.477 85.8469 29.862C85.8469 30.2952 85.9015 30.3553 86.4331 30.6321C86.7602 30.8006 87.1691 31.0773 87.3599 31.2578C87.6734 31.5466 87.6734 31.5706 87.4417 31.7271C87.3054 31.8113 86.8828 31.9196 86.5012 31.9677L85.8197 32.0519L85.9015 32.7378C85.9424 33.1108 86.0787 36.9011 86.215 41.1726C86.235 41.8495 86.2526 42.4696 86.2687 43.0374L86.2689 43.0443C86.4101 48.007 86.4447 48.285 86.4447 48.285Z" fill="black"/>
</svg>
