<svg width="200" height="109" viewBox="0 0 200 109" fill="none" xmlns="http://www.w3.org/2000/svg">
<path fill-rule="evenodd" clip-rule="evenodd" d="M99.6981 108.422C131.279 81.3543 175.639 55.0386 200 45.5648C196.241 43.1577 190.375 39.6989 183.759 35.9403C152.33 46.317 115.639 69.3246 82.8562 95.3387C88.4205 99.5497 94.2846 103.911 99.6981 108.422Z" fill="white"/>
<path fill-rule="evenodd" clip-rule="evenodd" d="M85.2631 34.8886C80.5997 32.6323 75.4878 30.5268 71.5784 28.7229C59.6976 34.587 44.209 43.4594 24.6602 57.4438C28.8712 59.7001 33.3818 62.4069 38.1941 65.1137C53.2322 53.9849 68.4192 43.4594 85.2631 34.8886V34.8886Z" fill="white"/>
<path fill-rule="evenodd" clip-rule="evenodd" d="M113.384 21.9559C107.668 18.7967 87.8199 11.4285 74.1351 8.27124C70.075 9.77544 64.3598 12.0298 60.4504 13.6848C65.4135 15.0382 83.9105 20.0013 99.6988 27.9708C103.759 26.0161 109.474 23.609 113.384 21.9559V21.9559Z" fill="white"/>
<path fill-rule="evenodd" clip-rule="evenodd" d="M46.1642 20.0012C28.5701 28.1216 10.075 39.2484 0 45.7157C3.60776 47.3687 7.21742 48.7221 12.1805 51.1292C34.4361 36.0911 51.8794 26.9171 58.7971 23.9106C53.8341 22.1048 49.1726 20.9022 46.1642 20.0012V20.0012Z" fill="white"/>
<path fill-rule="evenodd" clip-rule="evenodd" d="M126.615 17.2944C130.676 15.941 135.339 14.7365 139.399 13.5339C127.669 8.57083 112.933 3.30807 99.6984 0C97.593 0.601292 91.2784 2.25631 86.9166 3.6097C91.4272 4.96309 106.315 8.42197 126.615 17.2944ZM52.4806 73.8352C57.2928 76.6928 62.4048 80.6022 67.3678 83.9103C100.3 58.3466 132.781 38.6471 168.422 27.5183C163.459 24.9623 159.097 22.708 153.534 20.0012C132.18 25.4148 95.6383 40.0005 52.4806 73.8352Z" fill="white"/>
</svg>
