<svg width="215" height="72" viewBox="0 0 215 72" fill="none" xmlns="http://www.w3.org/2000/svg">
<path d="M45.5794 -0.00012207H60.5294C63.3186 -0.00012207 66.1078 0.404146 68.8969 1.2096C71.6861 2.01813 74.2068 3.28649 76.4626 5.02083C78.7183 6.75517 80.5418 8.97402 81.9363 11.6743C83.3309 14.3776 84.0282 17.6241 84.0282 21.4138C84.0282 25.083 83.3309 28.2616 81.9363 30.9434C80.5418 33.6251 78.7183 35.844 76.4626 37.5968C74.2068 39.3528 71.6861 40.6613 68.8969 41.5284C66.1078 42.3956 63.3186 42.8276 60.5294 42.8276H45.5794V-0.00012207ZM51.6703 37.5691H59.2987C61.924 37.5691 64.3506 37.2049 66.5889 36.4797C68.8237 35.7545 70.7517 34.7052 72.3695 33.335C73.9907 31.9649 75.2493 30.2706 76.1523 28.2524C77.0553 26.2372 77.505 23.9566 77.505 21.4168C77.505 18.7536 77.0518 16.4175 76.1523 14.3992C75.2493 12.3841 73.9872 10.6991 72.3695 9.34743C70.7483 7.99575 68.8202 6.96811 66.5889 6.26141C64.3541 5.55471 61.924 5.2029 59.2987 5.2029H51.6703V37.5691Z" fill="white"/>
<path d="M90.6585 32.1192C90.6585 32.1192 96.1044 19.9603 97.8162 15.9053C99.4967 11.9305 104.228 0 104.228 0H110.95C110.95 0 115.304 11.3596 116.887 15.143C118.662 19.3832 124.376 32.1099 124.376 32.1099L117.738 31.5483H97.0701L90.6585 32.1192ZM99.6501 26.2866H115.099L107.408 6.95895L99.6501 26.2866Z" fill="white"/>
<path d="M140.742 37.5074H160.182V42.8339H134.654V0H140.742V37.5074Z" fill="white"/>
<path d="M172.176 0H166.085V42.8339H172.176V0Z" fill="white"/>
<path d="M45.5264 61.3902V48.5396H49.0547V58.6867H54.6714V61.3902H45.5264Z" fill="white"/>
<path d="M111.278 61.3902L110.151 58.8688H104.531L103.464 61.3902H99.6503L105.741 48.5396H109.144L115.172 61.3902H111.278ZM107.38 51.9713L105.535 56.3814H109.186L107.38 51.9713Z" fill="white"/>
<path d="M172.326 57.6498C172.326 58.3504 172.169 58.9429 171.855 59.4181C171.541 59.8965 171.123 60.2791 170.603 60.5692C170.084 60.8593 169.491 61.0692 168.829 61.1957C168.166 61.3222 167.486 61.387 166.789 61.387H161.005V48.5367H166.786C167.347 48.5367 167.919 48.5892 168.508 48.691C169.094 48.7929 169.627 48.9688 170.108 49.2188C170.586 49.4656 170.976 49.802 171.276 50.2248C171.576 50.6476 171.726 51.1877 171.726 51.8388C171.726 52.5517 171.506 53.1411 171.07 53.6071C170.631 54.0731 170.059 54.4095 169.348 54.6132V54.6502C169.76 54.7119 170.143 54.823 170.506 54.9866C170.868 55.1501 171.182 55.36 171.45 55.613C171.719 55.8661 171.928 56.1624 172.085 56.5018C172.245 56.8475 172.326 57.227 172.326 57.6498ZM168.348 52.2616C168.348 51.8265 168.159 51.5086 167.783 51.308C167.406 51.1074 166.848 51.0087 166.113 51.0087H164.39V53.6596H166.277C166.932 53.6596 167.441 53.5423 167.804 53.3047C168.166 53.0671 168.348 52.7214 168.348 52.2616ZM168.818 57.3597C168.818 56.8289 168.592 56.4586 168.142 56.2519C167.692 56.0451 167.089 55.9432 166.339 55.9432H164.39V58.8842H166.36C166.632 58.8842 166.918 58.8626 167.211 58.8194C167.504 58.7762 167.772 58.7022 168.009 58.5911C168.246 58.4831 168.442 58.3288 168.592 58.1282C168.742 57.9337 168.818 57.6745 168.818 57.3597Z" fill="white"/>
<path d="M38.0409 71.9997C79.244 71.9997 97.3736 30.9056 97.3736 30.9056L90.962 31.4782C90.962 31.4782 72.6232 69.6814 38.3372 69.6814C2.7822 69.6814 1.35275 44.7222 1.35275 41.3888C1.35275 29.0206 12.1469 22.3816 20.5527 22.5301C25.4931 22.6168 35.7433 24.7896 35.7433 34.6352C35.7433 40.1383 31.3364 41.7881 29.1225 42.1254C26.2427 42.5649 22.5226 41.3764 21.4244 38.2317C20.8351 36.5418 21.3511 33.5333 24.8516 33.4405C26.0753 33.4064 27.3932 34.3566 27.4664 35.4523C27.5048 36.0032 27.1491 37.1268 25.8731 37.1268C24.9039 37.1268 24.74 36.4675 24.7714 36.1147C24.8202 35.6009 25.4303 35.5452 25.4303 35.5452C25.4303 35.5452 24.7156 35.4925 24.7086 36.2911C24.7016 37.0896 25.507 37.2568 25.9463 37.2568C26.7168 37.2568 27.6024 36.5542 27.6442 35.5916C27.6826 34.7342 26.9051 33.196 24.8829 33.196C21.8881 33.196 20.8038 35.3904 20.6643 36.7337C20.368 39.6153 22.941 42.9116 28.0033 42.9116C33.5503 42.9116 36.6498 38.6465 36.6498 34.3752C36.6498 30.3361 33.4457 21.9606 21.3442 21.6109C8.93234 21.2456 0 30.6641 0 41.4476C0 45.9572 2.60788 71.9997 38.0409 71.9997Z" fill="white"/>
<path d="M176.959 72.0001C135.756 72.0001 117.627 30.9059 117.627 30.9059L124.038 31.4786C124.038 31.4786 142.377 69.6818 176.663 69.6818C212.218 69.6818 213.651 44.7226 213.651 41.3892C213.651 29.021 202.857 22.3819 194.451 22.5305C189.511 22.6172 179.26 24.79 179.26 34.6356C179.26 40.1387 183.667 41.7884 185.881 42.1258C188.761 42.5653 192.481 41.3768 193.579 38.2321C194.168 36.5422 193.652 33.5337 190.152 33.4409C188.928 33.4068 187.61 34.357 187.537 35.4527C187.499 36.0036 187.854 37.1272 189.131 37.1272C190.1 37.1272 190.264 36.4679 190.232 36.1151C190.183 35.6013 189.573 35.5456 189.573 35.5456C189.573 35.5456 190.288 35.4929 190.295 36.2915C190.302 37.09 189.497 37.2572 189.057 37.2572C188.287 37.2572 187.401 36.5546 187.359 35.592C187.321 34.7346 188.099 33.1963 190.121 33.1963C193.116 33.1963 194.2 35.3908 194.339 36.7341C194.636 39.6157 192.063 42.912 187 42.912C181.453 42.912 178.354 38.6469 178.354 34.3756C178.354 30.3364 181.558 21.961 193.659 21.6113C206.068 21.2522 215 30.6707 215 41.4542C215 45.9576 212.392 72.0001 176.959 72.0001Z" fill="white"/>
</svg>
