<svg width="113" height="110" viewBox="0 0 113 110" fill="none" xmlns="http://www.w3.org/2000/svg">
<path fill-rule="evenodd" clip-rule="evenodd" d="M50.0571 0H0V2.03592C4.46092 4.5404 6.4439 7.51618 6.4439 19.4152V90.19C6.4439 102.089 4.46092 105.065 0 107.569V109.605H46.9189C48.1502 109.605 49.3633 109.583 50.5616 109.543C51.0071 105.044 51.5102 98.5291 51.8357 92.0185L52.0123 87.4559C51.9866 87.2022 51.8594 87.0183 51.5561 87.3208C47.4907 91.3743 47.2797 90.7482 45.5965 90.2813C43.715 89.7596 38.0355 87.7998 37.1919 87.2438C36.437 86.7476 36.6532 86.4845 37.5142 86.1407C41.8017 84.4275 50.899 80.5853 52.1731 80.0779C52.261 80.0433 52.3199 79.9619 52.3228 79.8718L52.4298 77.2848C52.4365 77.1174 52.263 76.9977 52.0979 77.0566C49.8793 77.8411 38.5637 82.2678 36.9027 82.8503C35.0739 83.4918 34.0374 83.4085 32.5844 82.4555C31.4696 81.7249 27.8002 77.6339 27.1922 76.6587C26.965 76.2943 26.7198 75.9392 27.4461 75.7931C28.1353 75.6539 50.1459 71.4201 52.492 71.002C52.6044 70.9825 52.6868 70.8913 52.6914 70.7825L52.7996 68.2465C52.8056 68.0994 52.6701 67.9837 52.5168 68.007C50.0016 68.3764 32.9056 71.2374 31.0029 71.5328C28.9546 71.8503 28.5068 71.1083 27.7991 70.2611C27.0913 69.4135 24.7143 64.5016 24.4486 64.0368C23.9649 63.1893 23.923 62.818 24.7796 62.7663C31.9408 62.3289 50.5734 61.2866 52.884 61.1515C53.0092 61.1435 53.1089 61.0471 53.1144 60.9273L53.2064 58.5577C53.2118 58.4218 53.0959 58.31 52.9525 58.3141C50.5518 58.3892 31.3082 58.9454 30.0275 58.9046C28.7254 58.864 28.1654 58.7281 27.4576 57.3164C26.8204 56.0458 26.013 50.6061 25.9384 50.0074C25.8826 49.5536 25.8279 49.1936 26.6522 49.3377C33.1958 50.4855 50.8123 52.3376 53.1826 52.6165C53.3263 52.633 53.4527 52.5305 53.459 52.3935L53.5481 50.2093C53.553 50.0907 53.4645 49.9871 53.3402 49.9687C51.3225 49.6706 35.2089 47.3769 33.4271 47.0683C31.5103 46.7365 31.1689 46.3934 30.7225 45.0699C30.4149 44.1597 30.0862 39.6883 30.0798 39.2102C30.0735 38.712 30.0295 38.4188 30.7439 38.6167C41.623 41.6338 51.6622 44.0369 53.4859 44.4701C53.6377 44.5068 53.7857 44.4003 53.7918 44.252L53.8788 42.1443C53.8831 42.0347 53.808 41.9372 53.6967 41.9087C51.9609 41.4672 38.8322 38.1275 37.7357 37.7793C36.4896 37.3836 35.439 36.8334 35.2025 35.4573C34.9634 34.0689 34.9348 31.0892 34.9787 30.4275C35.0236 29.7548 35.1126 29.5781 35.6992 29.8521C40.6374 32.1631 51.7536 36.1059 53.7739 36.8172C53.9311 36.8731 54.0994 36.7665 54.1055 36.607L54.189 34.5673C54.1925 34.4697 54.1324 34.3796 54.0361 34.3421C52.6923 33.8214 43.2588 30.1628 41.6987 29.5213C40.1835 28.8971 39.8924 28.3938 39.7447 27.0796C39.6643 26.3642 39.6365 24.3992 39.8184 23.213C39.9332 22.4661 39.8753 22.2822 41.0722 22.9571C43.471 24.3091 52.1977 28.6163 54.0439 29.5244C54.2044 29.6035 54.3969 29.497 54.4035 29.3254L54.4859 27.3169C54.4891 27.2279 54.44 27.1446 54.3564 27.1018C53.4154 26.6239 47.8321 23.7904 46.5248 23.1125C44.8254 22.2296 44.3446 21.5476 44.3071 20.7916C44.2377 19.39 44.3874 17.7459 44.4753 17.1521C44.6283 16.109 44.8749 15.9698 45.6005 16.5178C48.7443 18.8948 53.0523 21.5709 54.3177 22.3474C54.4776 22.4458 54.6895 22.3403 54.6967 22.1586L54.7707 20.3633C54.7739 20.289 54.7398 20.2181 54.6788 20.1715C53.943 19.6141 49.282 16.4082 49.282 16.4082C49.282 16.4082 48.6708 15.8796 48.676 15.3305C48.6844 14.344 49.0389 12.3681 49.1696 12.0201C49.3355 11.5776 49.4384 11.3362 49.9461 11.8171C52.2263 13.9777 53.6602 15.0951 54.5975 15.8267C54.8574 16.0298 54.9549 16.0692 54.9549 15.8612C54.9549 13.8031 53.9679 9.72445 56.1113 8.60209C56.1466 8.58373 56.1865 8.57442 56.2258 8.57442C56.2654 8.5736 56.3062 8.58373 56.3414 8.60209C58.4851 9.72445 57.4981 13.8031 57.4981 15.8612C57.4981 16.0692 57.5956 16.0298 57.8555 15.8267C58.7925 15.0951 60.2262 13.9777 62.5069 11.8171C63.0146 11.3362 63.1172 11.5776 63.2832 12.0201C63.4153 12.3681 63.7683 14.344 63.777 15.3305C63.7825 15.8796 63.171 16.4082 63.171 16.4082C63.171 16.4082 58.51 19.6141 57.7742 20.1715C57.7132 20.2181 57.6788 20.289 57.682 20.3633L57.756 22.1586C57.7635 22.3403 57.9755 22.4458 58.1362 22.3474C59.4008 21.5709 63.7082 18.8948 66.8522 16.5178C67.5781 15.9698 67.8245 16.109 67.9785 17.1521C68.0656 17.7459 68.215 19.39 68.1468 20.7916C68.1092 21.5476 67.6284 22.2296 65.9294 23.1125C64.6206 23.7904 59.0376 26.6239 58.0966 27.1018C58.013 27.1446 57.9636 27.2279 57.9671 27.3169L58.0495 29.3254C58.0558 29.497 58.2484 29.6035 58.4091 29.5244C60.2551 28.6163 68.9818 24.3091 71.3805 22.9571C72.5777 22.2822 72.5198 22.4661 72.6343 23.213C72.8162 24.3992 72.7884 26.3642 72.7081 27.0796C72.5603 28.3938 72.2692 28.8971 70.754 29.5213C69.194 30.1628 59.7604 33.8214 58.4166 34.3421C58.3201 34.3796 58.2602 34.4697 58.2646 34.5673L58.347 36.607C58.3548 36.7665 58.5216 36.8731 58.6791 36.8172C60.6997 36.1059 71.815 32.1631 76.7535 29.8521C77.3404 29.5781 77.4292 29.7548 77.474 30.4275C77.5182 31.0892 77.489 34.0689 77.2505 35.4573C77.0137 36.8334 75.9646 37.3836 74.7168 37.7793C73.6216 38.1275 60.4918 41.4672 58.756 41.9087C58.6447 41.9372 58.5699 42.0347 58.5739 42.1443L58.6606 44.252C58.6673 44.4003 58.815 44.5068 58.9671 44.4701C60.7905 44.0369 70.83 41.6338 81.7091 38.6167C82.4244 38.4188 82.3804 38.712 82.3729 39.2102C82.3665 39.6883 82.0378 44.1597 81.7305 45.0699C81.2838 46.3934 80.9427 46.7365 79.0268 47.0683C77.245 47.3769 61.1299 49.6706 59.1128 49.9687C58.9885 49.9871 58.9006 50.0907 58.9049 50.2093L58.994 52.3935C59.0003 52.5305 59.1267 52.633 59.2701 52.6165C61.6408 52.3376 79.2569 50.4855 85.8014 49.3377C86.6262 49.1936 86.5701 49.5536 86.5146 50.0074C86.4406 50.6061 85.6323 56.0458 84.9951 57.3164C84.2874 58.7281 83.7285 58.864 82.4252 58.9046C81.1459 58.9454 61.9009 58.3892 59.5005 58.3141C59.3568 58.31 59.2412 58.4218 59.2475 58.5577L59.3386 60.9273C59.3441 61.0471 59.4435 61.1435 59.5699 61.1515C61.8807 61.2866 80.5119 62.3289 87.6731 62.7663C88.5309 62.818 88.4881 63.1893 88.0041 64.0368C87.7384 64.5016 85.3614 69.4135 84.6536 70.2611C83.9459 71.1083 83.4992 71.8503 81.4498 71.5328C79.5469 71.2374 62.4523 68.3764 59.9359 68.007C59.7829 67.9837 59.6468 68.0994 59.6534 68.2465L59.7616 70.7825C59.7668 70.8913 59.8483 70.9825 59.9619 71.002C62.3069 71.4201 84.3174 75.6539 85.0069 75.7931C85.734 75.9392 85.4877 76.2943 85.2608 76.6587C84.6537 77.6339 80.9832 81.7249 79.8684 82.4555C78.4153 83.4085 77.3789 83.4918 75.55 82.8503C73.8893 82.2678 62.5734 77.8411 60.356 77.0566C60.1897 76.9977 60.0174 77.1174 60.0238 77.2848L60.1299 79.8718C60.1331 79.9619 60.192 80.0433 60.2811 80.0779C61.554 80.5853 70.6513 84.4275 74.9397 86.1407C75.7992 86.4845 76.016 86.7476 75.262 87.2438C74.4172 87.7998 68.7377 89.7596 66.8554 90.2813C65.1733 90.7482 64.9623 91.3743 60.8966 87.3208C60.5936 87.0183 60.467 87.2022 60.4404 87.4559L60.6182 92.0185C60.9191 98.0632 61.3742 104.111 61.7948 108.547C95.2971 103.547 113 81.2854 113 52.1406C113 22.2348 91.5237 0 50.0571 0Z" fill="black"/>
</svg>
