<svg width="113" height="136" viewBox="0 0 113 136" fill="none" xmlns="http://www.w3.org/2000/svg">
<path fill-rule="evenodd" clip-rule="evenodd" d="M68.1993 0.19875C80.9201 0.934486 91.0776 2.29947 101.246 4.62284C104.73 5.42634 110.344 6.94622 110.577 7.16888C110.715 7.28504 111.456 11.4381 111.785 13.8583C112.208 17.0916 112.579 21.1188 112.865 25.814C113.045 28.7085 113.045 39.7639 112.865 42.6584C112.166 54.1882 110.736 63.3558 108.194 72.7268C101.892 95.8927 89.4677 114.412 71.7476 127.036C67.4261 130.114 62.681 132.912 57.6287 135.342L56.2835 136L54.5571 135.148C45.9459 130.908 39.0718 126.261 32.5049 120.249C13.6409 102.969 2.72078 78.0028 0.422357 46.9179C-0.139008 39.3573 -0.139008 30.5962 0.411766 23.0549C0.782479 18.0694 1.42858 12.8611 2.13823 9.21151L2.53013 7.17856L3.90706 6.76228C9.27711 5.1456 15.9711 3.65477 23.0782 2.4834C30.0476 1.34108 39.6756 0.411727 48.0219 0.0729014C51.4007 -0.0723104 65.1065 0.0148172 68.1993 0.19875ZM50.2992 2.2608C36.6463 2.60931 22.125 4.44864 10.6328 7.27542C8.27088 7.85626 4.56375 8.86305 4.45783 8.95986C4.25658 9.1438 3.53634 13.5195 3.12326 17.0529C1.97935 26.7821 1.76751 37.3825 2.53012 47.402C4.55315 73.9563 12.9525 95.9702 27.3361 112.408C34.8351 120.985 43.8593 127.926 54.3982 133.212L56.2729 134.151L57.8935 133.357C68.0934 128.323 77.3082 121.372 84.7119 113.115C98.3859 97.8773 106.87 77.7995 109.814 53.6945C110.609 47.2859 110.937 41.5936 110.937 34.4976C110.937 27.1693 110.545 20.8381 109.709 14.536C109.433 12.4836 108.861 9.11475 108.766 8.95986C108.702 8.87274 107.167 8.42742 104.847 7.81754C92.7193 4.66162 78.897 2.78356 64.0155 2.28984C61.4735 2.20271 53.053 2.18335 50.2992 2.2608ZM66.2928 4.32279C78.198 4.89396 88.7898 6.21054 98.5448 8.3403C101.055 8.88242 104.529 9.73432 106.107 10.199L107.061 10.4797L107.188 11.109C107.611 13.2 108.258 18.5147 108.543 22.2805C108.851 26.1528 108.925 27.9438 108.999 32.3969C109.253 50.1417 106.626 67.0442 101.352 81.4298C96.0875 95.8154 88.2813 107.829 77.9438 117.481C71.7264 123.28 65.1171 127.849 57.0038 131.944L56.2941 132.312L54.8324 131.566C35.1105 121.479 20.801 105.419 12.4017 83.9468C7.94253 72.5526 5.29458 59.8708 4.32014 45.3207C4.09771 41.9034 4.00238 32.7648 4.16126 29.1539C4.42605 22.9485 4.99801 16.9658 5.71825 12.6482C5.75729 12.4135 5.79035 12.2044 5.81985 12.0179C5.9558 11.1582 6.01633 10.7754 6.23869 10.5551C6.41716 10.3783 6.69987 10.3061 7.20949 10.176C7.34799 10.1406 7.50325 10.101 7.67774 10.0538C16.2571 7.73041 26.5947 5.93947 36.9853 5.00044C40.9466 4.64226 44.8232 4.4196 50.8287 4.18726C52.6399 4.1195 64.185 4.21631 66.2928 4.32279ZM12.4864 10.3248C23.2371 7.76909 35.8519 6.16209 48.9222 5.68774C54.038 5.49412 63.2953 5.58125 68.57 5.87167C81.0471 6.54932 93.5137 8.37898 103.629 11.0121L103.938 11.093C105.306 11.4503 105.625 11.5336 105.722 11.7274C105.751 11.7863 105.76 11.8554 105.772 11.9455C105.774 11.9627 105.776 11.9807 105.779 11.9996C106.351 16.0268 106.51 17.2852 106.69 19.0859C107.304 25.117 107.484 29.754 107.4 36.7532C107.368 39.7639 107.304 42.368 107.272 42.5326L107.209 42.852H56.4848C15.9817 42.852 5.76062 42.823 5.75003 42.7262C5.75003 42.7057 5.74473 42.4865 5.736 42.1257C5.72006 41.4664 5.69268 40.3342 5.6653 39.0766C5.45346 30.9641 5.98305 21.4286 7.03164 14.3133C7.26466 12.8031 7.45531 11.6511 7.48708 11.6123C7.55064 11.5639 10.6646 10.7604 12.4864 10.3248ZM55.5527 12.9386C54.3982 12.261 52.8518 11.6123 51.6549 11.3219C50.7758 11.1186 50.3309 11.0702 48.8163 11.0412C46.1895 10.9928 44.8232 11.2348 40.0781 12.5611C37.5784 13.2677 35.8625 13.6647 34.708 13.8099C33.4476 13.9744 31.0115 13.8873 30.0476 13.6356C29.6239 13.5291 29.2744 13.4614 29.2744 13.4807C29.2744 13.5194 25.186 33.423 25.0801 33.8683C25.0271 34.1103 25.0589 34.1394 25.705 34.3233C27.4632 34.817 29.8887 34.8364 32.2401 34.3814C33.0133 34.2362 35.2588 33.607 37.6419 32.8809C43.3615 31.1287 44.6855 30.8479 47.344 30.8479C50.3627 30.8479 52.6611 31.4869 55.3091 33.0648C55.9446 33.4424 56.5059 33.7522 56.5589 33.7522C56.6224 33.7522 57.1308 33.4714 57.7028 33.1229C59.6199 31.9709 61.4099 31.3029 63.4224 30.9835C64.1532 30.8673 64.8205 30.8383 66.2398 30.877C68.9937 30.9544 70.0211 31.1771 76.0902 33.0648C78.092 33.6844 80.0833 34.2362 80.8565 34.3814C82.4664 34.7009 84.553 34.7977 85.8346 34.6331C86.7138 34.5073 88.0589 34.1781 88.0589 34.0813C88.0589 34.0232 84.0023 14.3036 83.8646 13.7034L83.8116 13.4517L83.049 13.6453C82.0851 13.8873 79.6384 13.9744 78.3886 13.8099C77.2023 13.655 75.3699 13.229 72.9656 12.5514C68.3899 11.2542 66.5999 10.9541 64.0685 11.0315C62.8398 11.0702 62.2467 11.138 61.4417 11.3316C60.2554 11.6123 58.5925 12.3094 57.5122 12.9676C57.1097 13.2193 56.686 13.4226 56.5695 13.4226C56.4424 13.4226 55.9869 13.2097 55.5527 12.9386ZM55.4044 34.4201C53.8368 33.4811 52.2904 32.8712 50.6169 32.5421C49.6848 32.3581 47.3546 32.2807 46.3802 32.4065C45.268 32.5421 43.1391 33.0455 41.8257 33.4811C41.1902 33.6941 39.3472 34.3717 37.7479 34.9816C33.1404 36.7435 31.3716 37.2082 29.0096 37.305C27.6539 37.3534 27.2196 37.305 25.2813 36.879C25.0589 36.8306 25.0377 36.8597 25.0377 37.1695C25.0377 37.4696 25.0801 37.5276 25.3872 37.6148C26.8489 38.0504 28.8084 38.2053 30.5454 38.0214C32.0707 37.8568 34.422 37.2856 37.0064 36.4628C42.8001 34.6041 44.6325 34.2072 47.4394 34.2072C50.3203 34.2072 52.8835 34.9429 55.415 36.5015C55.9022 36.8016 56.4106 37.0436 56.5589 37.0436C56.6966 37.0436 57.205 36.8016 57.6922 36.5015C58.1688 36.2111 59.0374 35.7561 59.6199 35.4947C61.7489 34.5557 63.4118 34.2072 65.7632 34.2072C68.5276 34.2168 70.3388 34.6137 76.3762 36.5402C78.897 37.3437 81.0154 37.8568 82.5512 38.0214C84.2882 38.2053 86.2477 38.0504 87.72 37.6148C88.0165 37.5276 88.0589 37.4696 88.0589 37.1791C88.0589 36.9952 88.0271 36.85 87.9954 36.85C87.9636 36.85 87.5505 36.9468 87.0739 37.063C85.8028 37.3728 83.3667 37.3728 81.8309 37.063C80.2104 36.7338 78.5369 36.2014 75.8148 35.1462C70.9849 33.2875 68.7607 32.6389 66.4516 32.3872C63.38 32.0677 60.4249 32.7647 57.5863 34.4879C57.1203 34.7783 56.6436 35.0107 56.5483 35.0107C56.453 35.0107 55.934 34.7493 55.4044 34.4201ZM40.0595 17.5731C38.3092 17.9097 38.0165 17.9659 37.9686 18.1056C37.959 18.1337 37.9593 18.1651 37.9596 18.2028L37.9597 18.2242C37.9597 18.4469 37.9915 18.4566 38.5423 18.4566C39.2625 18.4566 39.6968 18.6502 39.9404 19.0665C40.1099 19.3472 40.131 19.6957 40.131 22.5709C40.131 25.5429 40.1204 25.7849 39.9298 26.0753C39.6968 26.4238 39.3896 26.569 38.7435 26.6562C38.3834 26.6949 38.2775 26.753 38.2775 26.8885C38.2775 27.0627 38.4152 27.0724 41.0313 27.0724C43.6475 27.0724 43.7852 27.0627 43.7852 26.8885C43.7852 26.7433 43.6793 26.6949 43.2556 26.6465C42.5777 26.569 42.1223 26.2108 41.9846 25.6687C41.9316 25.4557 41.8787 23.4809 41.8787 21.2834V17.2949L41.6457 17.3046C41.508 17.3143 40.9784 17.3917 40.4488 17.4982L40.0595 17.5731ZM57.9676 21.4092C57.1732 19.7732 58.4548 17.7789 60.5626 17.3917C61.1875 17.2852 61.3994 17.2852 62.0243 17.4014C64.2274 17.8273 65.4031 19.5892 65.2442 22.2321C65.1171 24.5167 64.0579 26.3948 62.4797 27.1499C62.0243 27.3725 61.823 27.4113 60.9969 27.4113C60.1601 27.4113 59.9695 27.3725 59.4399 27.1402C58.7514 26.8304 58.4019 26.4819 58.4019 26.114C58.4019 25.5332 58.9315 25.4557 59.4717 25.9688C59.8953 26.3754 60.5414 26.6852 60.9969 26.6852C61.3994 26.6852 62.0984 26.3851 62.395 26.0947C62.914 25.5719 63.3694 24.4199 63.5389 23.2098L63.6131 22.6871L63.3377 22.8904C62.5221 23.4712 60.9757 23.5486 59.8212 23.0646C59.0374 22.7451 58.2854 22.0675 57.9676 21.4092ZM63.5707 20.78C63.3906 19.4537 62.6598 18.4082 61.7171 18.1758C61.4947 18.1178 61.2723 18.0693 61.2087 18.079C59.7682 18.1855 58.8997 20.0152 59.6094 21.4092C60.2025 22.5806 61.3994 22.9 62.8293 22.2708C63.5813 21.932 63.6978 21.7093 63.5707 20.78ZM47.0157 17.7983C46.9945 17.8661 46.8568 18.5244 46.7192 19.2601L46.4544 20.596L46.7297 20.567C46.9416 20.5476 47.0263 20.4508 47.1428 20.083C47.3017 19.5699 47.7254 19.1923 48.3185 19.0375C48.5409 18.989 49.8225 18.9406 51.2207 18.9406H53.7203L51.1253 22.6774C49.5789 24.9233 48.5092 26.5497 48.4774 26.7433C48.3927 27.237 48.668 27.5565 49.187 27.5565C49.5048 27.5565 49.6425 27.4984 49.8225 27.2854C50.2039 26.8498 54.9066 18.1855 54.9066 17.9242V17.6822H50.9876C47.9372 17.6822 47.0475 17.7112 47.0157 17.7983ZM68.57 20.4412C68.57 20.2669 68.9725 18.1081 69.0572 17.8467C69.1102 17.6918 69.3962 17.6822 73.0292 17.6822H76.9375V17.9532C76.9375 18.2436 72.3619 26.6562 71.8852 27.237C71.684 27.4887 71.5569 27.5565 71.2603 27.5565C70.8155 27.5565 70.4765 27.2757 70.4765 26.8982C70.4765 26.5691 70.5719 26.4238 73.4211 22.3289L75.7406 18.989L73.294 18.96C70.0741 18.9213 69.6292 19.0375 69.2267 20.0346C69.0784 20.3928 68.9513 20.5476 68.7924 20.567C68.6441 20.5864 68.57 20.5476 68.57 20.4412ZM5.86655 44.9333V45.6594H35.5766H65.2866L65.3077 85.5924L65.3395 125.516L66.1127 124.983L66.8753 124.451V84.3339V44.2073H36.3709H5.86655V44.9333ZM68.6018 123.241C68.4959 123.299 68.4641 115.37 68.4641 83.7628V44.2074H87.7942H107.124V44.9334V45.6595H88.5356H69.947V83.9661V122.282L69.3326 122.728C69.0043 122.97 68.6654 123.202 68.6018 123.241ZM5.97246 46.4242C5.97246 46.8792 6.27962 50.2965 6.51264 52.3875C8.77928 73.1333 15.2403 90.9168 25.652 105.031C32.2931 114.054 40.5547 121.556 50.1932 127.316C52.0574 128.439 53.6144 129.301 55.3091 130.172L56.2941 130.676L57.3745 130.114C59.1645 129.194 60.9969 128.168 62.9352 126.997L64.757 125.893V86.0184V46.1435H35.3647H5.97246V46.4242ZM39.4002 49.0961C40.7136 49.5995 41.5079 51.0032 41.1478 52.2133C40.8089 53.3556 39.6332 54.1785 38.3516 54.1785C37.2077 54.1785 36.1591 53.5686 35.6931 52.6296C35.3965 52.0294 35.3965 51.0903 35.7036 50.4804C35.9896 49.9093 36.6781 49.2994 37.25 49.1058C37.8326 48.9218 38.9236 48.9122 39.4002 49.0961ZM37.6314 54.9045L38.3728 55.1465L39.0718 54.9045C39.4637 54.769 39.8027 54.6625 39.8239 54.6625C39.845 54.6625 39.8662 55.4951 39.8662 56.5019V58.3412L40.1098 58.2928C41.402 58.0314 48.0431 57.3634 51.2948 57.1698C53.858 57.0246 56.7601 57.1021 58.0629 57.3538C59.9165 57.7216 61.2617 58.5058 61.2617 59.2221C61.2617 59.5416 61.0498 59.9675 60.6367 60.4613C60.033 61.1873 55.7645 62.5813 53.1695 62.8911C51.8667 63.0557 51.263 62.9686 50.3839 62.4749C49.7378 62.1167 49.5789 62.0683 48.8693 62.0392C47.5982 61.9811 42.4188 62.562 38.5423 63.1912C29.9417 64.5949 24.5505 66.5117 22.3262 68.9803C20.981 70.4615 20.6209 71.9813 21.2246 73.5883C21.553 74.4596 21.6695 74.5467 21.5954 73.8788C21.5318 73.356 21.6801 72.0878 21.8178 71.8748C21.8496 71.8264 22.072 71.9426 22.305 72.1265C23.3324 72.9397 25.5249 73.6174 29.338 74.3047C30.8526 74.5854 35.4812 75.2921 36.6781 75.4373L37.25 75.5051L37.1759 73.0462L37.1622 72.4646C37.1283 71.0306 37.0765 68.839 37.0488 67.2281L36.9853 63.8689L37.2818 63.7914C37.7267 63.6849 39.5167 63.6946 39.6332 63.8108C39.6968 63.8689 39.6968 65.6695 39.6438 68.3607C39.6271 69.3236 39.6072 70.4571 39.5872 71.5928L39.5866 71.6302L39.5862 71.6488L39.5857 71.6796L39.5845 71.7467L39.5837 71.7956C39.554 73.4808 39.5246 75.1491 39.5061 76.2505C39.4935 76.9972 39.476 77.9588 39.4574 78.9775L39.4574 78.9789C39.429 80.5352 39.3982 82.2243 39.379 83.482C39.3366 85.5731 39.3366 87.2866 39.379 87.2866C39.6544 87.2866 47.8736 85.999 48.8693 85.7957C51.3054 85.302 52.7247 84.7986 53.1483 84.2662C53.5402 83.7628 53.3602 82.7947 52.7353 82.1074L52.5552 81.9138L52.6293 82.1074C52.6717 82.2139 52.7353 82.4849 52.7564 82.7173L52.82 83.1239L52.1315 82.8334C50.797 82.2623 48.0855 81.7782 42.9908 81.1974L42.3062 81.1153C41.148 80.9766 40.2042 80.8636 40.0887 80.8392L39.8344 80.7908L39.898 79.2709C39.951 77.7704 40.1098 76.9379 40.47 76.3183C40.4817 76.2968 40.4916 76.2766 40.5008 76.2578C40.5196 76.2193 40.5355 76.1867 40.5589 76.161C40.6866 76.0206 41.0372 76.0819 43.2991 76.4772C43.514 76.5148 43.7462 76.5553 43.997 76.599C51.782 77.964 55.6692 79.5226 56.7813 81.7298C57.3109 82.785 57.2156 84.2468 56.5377 85.4666C56.1988 86.0862 55.1714 87.0833 54.3558 87.5963C53.5402 88.0997 52.015 88.7871 50.8287 89.1743C48.0431 90.1037 45.4163 90.6264 38.2245 91.701C33.3946 92.4174 31.3292 92.882 30.2806 93.4919C29.7616 93.792 29.1685 94.5471 29.1685 94.9053C29.1685 95.2151 29.4015 95.6023 29.7511 95.9024L30.0476 96.1444L29.8676 95.8346C29.7722 95.6604 29.6981 95.37 29.6981 95.1764V94.8278L29.9947 94.9731C30.5348 95.2248 31.7211 95.5152 34.4962 96.0476C36.0214 96.3477 37.3454 96.6091 37.4407 96.6381C37.5784 96.6769 37.5996 96.4252 37.5572 94.4019L37.5042 92.1269H38.3092C38.7541 92.1269 39.1354 92.156 39.1566 92.1947C39.2095 92.2721 39.0718 101.236 38.9765 104.363L38.913 106.183L39.2837 106.125C40.5547 105.903 44.1665 104.625 44.3677 104.325C44.4525 104.199 44.6325 104.199 44.6325 104.315C44.6325 104.363 44.5054 104.538 44.3571 104.702C43.997 105.099 44.1877 105.089 44.6008 104.683C45.035 104.267 45.1621 104.015 45.1621 103.579C45.1621 102.805 44.4101 101.817 43.3721 101.217C42.8213 100.888 41.0949 100.268 40.0569 100.017L39.9861 100C39.6563 99.9221 39.4777 99.8799 39.3964 99.7677C39.3005 99.6352 39.3399 99.4052 39.4259 98.9038L39.4426 98.8066C39.5908 97.945 39.8556 97.2577 40.0251 97.2577C40.2581 97.2577 42.2812 97.887 43.2344 98.2548C45.1409 99.0002 46.6132 100.075 47.2275 101.188C47.5135 101.711 47.5453 101.846 47.5453 102.727C47.5453 103.56 47.5029 103.763 47.2805 104.179C47.1428 104.441 46.8144 104.847 46.5602 105.07C45.3846 106.116 43.8276 106.571 39.2307 107.219C36.6675 107.587 34.9516 107.974 33.8819 108.439C33.437 108.633 33.0451 108.768 33.0133 108.749C32.9392 108.671 33.9666 108.032 34.7398 107.674C35.1423 107.481 35.9684 107.161 36.5828 106.948L37.6949 106.561L37.7161 104.547C37.7373 103.444 37.7161 101.837 37.6631 100.994L37.589 99.4552L36.0002 99.1358C30.09 97.9354 27.961 97.2093 26.51 95.8637C25.419 94.8472 25.1224 93.4725 25.7474 92.2431C25.8427 92.0495 26.2452 91.5945 26.6265 91.246C27.8657 90.123 30.3442 89.1453 34.0831 88.303C35.1423 88.0707 36.3286 87.819 36.7311 87.7512L37.4619 87.6351L37.3983 85.2536C37.356 83.9467 37.3242 82.3494 37.3242 81.7008C37.3242 80.5488 37.3136 80.5101 37.0912 80.4713C37.0322 80.463 36.8314 80.4334 36.5428 80.3909L36.5305 80.3891C36.1461 80.3324 35.6101 80.2534 35.047 80.1712C30.609 79.5323 26.5523 78.603 23.9785 77.6349C19.53 75.9504 17.168 73.7529 16.7867 70.9358C16.4901 68.7673 17.3375 66.8796 19.424 65.0887C22.3368 62.5813 27.9293 60.4903 35.513 59.0576L36.9323 58.7865L36.8687 56.7245C36.837 55.5919 36.8264 54.6625 36.8476 54.6625C36.8687 54.6625 37.2183 54.769 37.6314 54.9045ZM38.8812 110.056C38.8388 111.343 38.807 112.902 38.807 113.531C38.807 114.509 38.7753 114.693 38.6058 114.886L38.394 115.119L38.1609 114.906C37.9385 114.702 37.9279 114.644 37.875 111.208L37.822 107.713H38.3834H38.9447L38.8812 110.056ZM37.0276 50.9354C37.0065 50.7418 37.07 50.5676 37.2183 50.4224C37.6949 49.9577 38.0868 50.3062 37.7585 50.9064C37.6314 51.1387 37.5149 51.2259 37.3242 51.2259C37.1124 51.2259 37.0488 51.1775 37.0276 50.9354ZM54.8536 59.4061C53.9639 59.7256 54.5147 60.471 55.5527 60.3451C56.3365 60.2483 56.6543 59.6965 56.0717 59.4351C55.7751 59.2996 55.1714 59.2802 54.8536 59.4061ZM70.6672 84.9632C70.6142 84.9632 70.5824 76.2312 70.5824 65.5534V46.1435H88.8109H107.05L106.976 47.1309C106.859 48.7573 106.499 52.1456 106.213 54.3721C104.942 64.2852 102.76 73.2689 99.5616 81.817C98.5025 84.6341 98.2906 85.1181 98.1106 85.0794C98.0852 85.0736 98.0294 85.06 97.9521 85.0409L97.7344 84.987L97.7315 84.9863L97.7306 84.986C97.5668 84.9454 97.3685 84.8963 97.1679 84.8471C96.5853 84.7018 96.0452 84.6438 95.1554 84.6438C93.6832 84.6438 92.9629 84.789 91.3848 85.4085C89.9549 85.97 89.5736 86.0184 88.758 85.7377C88.6722 85.7079 88.594 85.6847 88.5227 85.6636C88.3762 85.6203 88.2586 85.5855 88.1633 85.5191C87.7768 85.2497 87.7551 84.4597 87.6454 80.467C87.6328 80.0087 87.6191 79.508 87.6035 78.9612C87.4976 75.5245 87.3916 72.4751 87.3599 72.175L87.2963 71.6232L87.8259 71.5554C88.1225 71.5167 88.4508 71.4296 88.5567 71.3618C88.7368 71.236 88.7368 71.2166 88.4932 70.9843C88.3449 70.839 88.0272 70.6164 87.7729 70.4809C87.3599 70.2582 87.3175 70.2098 87.3175 69.8613C87.3175 69.5515 87.3599 69.4741 87.5081 69.4741C87.8365 69.4837 88.5144 69.8226 89.3299 70.3841C90.5586 71.2456 90.8128 71.3424 91.9779 71.3908C92.9417 71.4296 93.5667 71.3231 93.5667 71.1391C93.5667 70.9649 92.7511 70.5583 90.9187 69.8129C89.9019 69.3966 88.6521 68.8739 88.1437 68.6415L87.2116 68.2156V67.7315C87.2116 67.4024 87.2539 67.2475 87.3493 67.2475C87.6247 67.2475 89.2028 68.0123 90.8446 68.9319C92.8041 70.0356 93.5349 70.3647 94.2128 70.4228C94.8271 70.4712 95.1025 70.3453 95.3673 69.8613C95.6638 69.3289 95.6427 68.7867 95.3143 68.4866C94.9648 68.1672 94.5517 68.0316 92.1897 67.4508C90.495 67.0345 88.4508 66.444 87.5187 66.1052C87.3599 66.0471 87.2116 65.9019 87.1798 65.776C87.0951 65.5146 87.0845 65.0209 87.1586 65.0209C87.1798 65.0209 88.3449 65.4372 89.7218 65.9503C92.7723 67.0732 93.6302 67.3346 94.467 67.4121C95.0177 67.4508 95.1448 67.4314 95.399 67.2475C95.6533 67.0636 95.685 66.9764 95.685 66.444C95.685 65.747 95.452 65.3113 94.9542 65.0693C94.3716 64.7983 93.7997 64.7111 87.5081 63.8883L87.1057 63.8302V63.3074C87.1057 62.8525 87.1268 62.7847 87.2963 62.8331C87.3916 62.8621 88.6203 63.1332 90.0184 63.4333C91.9567 63.8496 92.8147 63.9948 93.6408 64.0335L94.7212 64.0722L95.0495 63.7818C95.3355 63.5107 95.3673 63.4333 95.3673 62.8428C95.3673 62.2619 95.3355 62.1748 95.0707 61.9231C94.647 61.5455 94.1174 61.5068 91.0776 61.623C89.6795 61.6811 88.186 61.7295 87.7729 61.7295H86.9997V61.2551V60.7905L87.72 60.7324C88.1119 60.7033 89.1711 60.7227 90.0714 60.7808C92.6875 60.9453 93.5667 60.9357 93.9586 60.7421C94.6047 60.4129 94.7106 59.2899 94.1386 58.8349C93.8632 58.622 93.7785 58.6123 92.9312 58.6607C92.4333 58.6897 91.3424 58.864 90.495 59.0479C88.8745 59.4061 87.1057 59.7353 87.0527 59.6772C87.0421 59.6578 86.9892 59.4642 86.9468 59.2415L86.8726 58.8349L87.2963 58.7381C88.006 58.5542 88.7898 58.438 90.601 58.2347C92.4651 58.0218 92.9417 57.8862 93.1324 57.5087C93.3125 57.1408 93.2807 56.5503 93.0689 56.3857C92.5604 55.9888 91.9143 56.0856 89.1499 56.9956C88.0166 57.3635 87.0527 57.6636 86.9892 57.6636C86.9256 57.6636 86.8938 57.4893 86.915 57.257L86.9468 56.8407L88.006 56.5697C90.6645 55.892 91.1411 55.7274 91.586 55.3499C91.9461 55.0401 92.0097 54.9336 92.0097 54.5851C92.0097 53.5493 91.4165 53.6364 88.525 55.1079C87.6353 55.5532 86.8832 55.9211 86.8515 55.9211C86.8091 55.9211 86.7879 55.7081 86.7879 55.4467V54.9723L87.5611 54.6722L87.6611 54.6365L87.7897 54.5903L87.9452 54.5344C88.3384 54.3929 88.7975 54.2276 89.1181 54.1204C89.5947 53.9559 90.0396 53.7235 90.3044 53.4912C90.6645 53.1814 90.7175 53.0846 90.6857 52.7555C90.6539 52.436 90.6116 52.3876 90.3679 52.3585C90.0396 52.3198 89.5947 52.5134 88.0483 53.3653C87.4234 53.7042 86.8832 53.9849 86.8515 53.9849C86.8197 53.9849 86.7879 53.8106 86.7879 53.5977V53.2008L87.8789 52.7264C88.472 52.465 89.0757 52.1456 89.2028 52.0197C89.51 51.7196 89.5947 51.284 89.4041 51.0323C89.2452 50.8484 89.2346 50.8484 88.8639 51.0032C88.6521 51.1 88.1119 51.497 87.6564 51.9035C87.1904 52.3005 86.7879 52.6296 86.7455 52.6296C86.7138 52.6296 86.682 52.4457 86.682 52.2133C86.682 51.8164 86.6926 51.7971 87.3281 51.4873C87.8153 51.2453 88.006 51.071 88.1225 50.8193C88.4932 50.0158 88.0695 49.9093 87.2645 50.616L86.682 51.1388V50.7999C86.682 50.6063 86.7561 50.3643 86.8409 50.2675C87.0421 50.0255 87.0421 49.5995 86.8409 49.2413C86.6502 48.8928 86.4278 48.8735 86.2159 49.1639C85.93 49.5705 85.9088 49.89 86.1312 50.2481C86.2583 50.4418 86.3219 50.6644 86.2901 50.829L86.2371 51.0904L85.6652 50.5966C84.9979 50.0158 84.7755 49.9771 84.7755 50.4418C84.7755 50.858 85.072 51.1969 85.7287 51.5357C86.2371 51.7971 86.2583 51.8261 86.2583 52.223V52.649L85.2945 51.8551C84.2777 51.0226 83.9387 50.829 83.6739 50.9161C83.4409 51.0032 83.4515 51.6809 83.6951 51.9423C83.7904 52.0584 84.4047 52.3973 85.0403 52.707C86.0677 53.1911 86.2054 53.2879 86.2371 53.5396C86.3007 54.0527 86.1206 54.0236 84.8284 53.2976C83.4303 52.5231 82.996 52.3392 82.6147 52.3392C82.2652 52.3392 82.1593 52.678 82.3711 53.1427C82.583 53.588 82.816 53.7235 84.606 54.3818L86.0994 54.9336L86.1312 55.4273C86.1524 55.6984 86.1418 55.9211 86.11 55.9211C86.0889 55.9211 85.5487 55.65 84.9132 55.3208C82.477 54.0624 81.4814 53.7138 81.1425 54.0333C80.8883 54.256 80.9094 54.8658 81.1848 55.1756C81.4708 55.5145 82.477 55.9307 83.7692 56.2502C84.3518 56.3954 85.125 56.5987 85.4851 56.7052L86.1418 56.8988L86.0783 57.257C86.0465 57.4506 86.0041 57.6345 85.9829 57.6539C85.9617 57.6733 85.2203 57.4506 84.3306 57.1505C81.1107 56.0856 80.2845 55.9501 79.882 56.4051C79.7232 56.589 79.6808 56.7439 79.7232 57.0537C79.8185 57.8572 80.1468 57.9927 82.4982 58.2444C84.1505 58.4284 84.7543 58.5155 85.6546 58.7381C86.0359 58.8253 86.0465 58.8446 86.0465 59.2706V59.7159L85.6016 59.6481C85.3474 59.6191 84.087 59.3674 82.7842 59.106C80.0409 58.5542 79.1936 58.4961 78.8017 58.8543C78.2933 59.319 78.3886 60.2967 78.9817 60.7033C79.3313 60.9357 80.1468 60.955 82.9749 60.7905C83.8752 60.7324 84.9132 60.713 85.2839 60.7324L85.9406 60.7808V61.2648V61.7488L83.3244 61.6714C79.2783 61.5359 78.4098 61.5552 78.0814 61.7488C77.6154 62.0296 77.4247 63.017 77.7319 63.5591C78.1132 64.2465 79.3525 64.2174 82.9749 63.4333C84.3412 63.1332 85.5804 62.8621 85.7181 62.8331C85.9617 62.7847 85.9723 62.7944 85.9088 63.2881C85.8664 63.5591 85.8241 63.8012 85.8135 63.8205C85.7923 63.8302 84.2671 64.0432 82.4135 64.2949C78.9817 64.7402 78.1132 64.9338 77.7001 65.3404C77.1811 65.8438 77.0858 66.8119 77.5201 67.1991C78.0497 67.6928 79.1618 67.4605 82.763 66.1245C84.0128 65.6695 85.2203 65.2339 85.4427 65.1565L85.8346 65.0306V65.505V65.9793L85.0191 66.2601C83.8646 66.6667 82.6995 66.9958 80.4646 67.5379C77.6578 68.2253 77.2659 68.4576 77.4142 69.3482C77.4671 69.6774 77.5836 69.8903 77.8484 70.1324C78.1979 70.4518 78.2403 70.4615 78.7805 70.4131C79.469 70.355 80.3269 69.9581 82.4135 68.7771C83.8646 67.9542 84.9132 67.4508 85.4957 67.2959C85.7287 67.2378 85.7393 67.2475 85.7075 67.7315L85.6758 68.2446L84.7755 68.6609C84.2777 68.8932 83.049 69.416 82.0428 69.8226C80.0833 70.6164 79.5537 70.8875 79.5007 71.1391C79.4584 71.3424 79.7761 71.4102 80.8565 71.4102C81.9263 71.4102 82.4559 71.2166 83.5786 70.4325C84.3306 69.9097 85.2203 69.4741 85.5487 69.4741C85.7181 69.4741 85.7393 69.5225 85.6758 69.8807C85.6334 70.113 85.5593 70.3066 85.5169 70.326C85.2309 70.4228 84.4365 70.9552 84.3942 71.0714C84.2882 71.3134 84.5319 71.478 85.0932 71.5457C85.4004 71.5845 85.6228 71.6619 85.6228 71.7297C85.6228 71.7974 85.5275 74.5274 85.411 77.7995C85.2945 81.0716 85.1991 83.9468 85.1991 84.1888V84.6244L84.1082 84.6341C82.7948 84.6438 81.9051 84.8277 80.4328 85.4085C78.8758 86.0184 78.664 86.0281 77.5095 85.5925C74.7874 84.5663 73.1986 84.363 71.3027 84.8277C71.2441 84.8406 71.1864 84.8535 71.1309 84.866L71.0783 84.8778L71.0705 84.8796L71.0646 84.8809C70.8598 84.9269 70.6982 84.9632 70.6672 84.9632ZM71.3239 85.3311L70.6354 85.4957L70.6036 85.97C70.5718 86.3863 70.593 86.4347 70.7625 86.3766C71.8746 85.9797 73.7494 85.8829 74.9251 86.1636C75.3064 86.2508 76.1114 86.5315 76.7257 86.7735C77.7425 87.1898 77.912 87.2285 78.6852 87.2285C79.469 87.2285 79.6172 87.1995 80.6446 86.7832C82.1699 86.1636 82.9219 85.9991 84.1929 85.9991C85.4639 85.9991 86.1418 86.154 87.7094 86.7832C88.7368 87.1898 88.9274 87.2382 89.6477 87.2382C90.3679 87.2382 90.5586 87.1898 91.7131 86.7348C92.4121 86.4637 93.2701 86.183 93.6196 86.1152C94.5411 85.941 96.1193 85.9797 96.9878 86.2024L97.7186 86.396L97.8775 86.0572C97.9622 85.8635 97.994 85.6796 97.9411 85.6409C97.4326 85.2246 94.7211 85.0116 93.4184 85.2924C93.0159 85.3795 92.1579 85.6602 91.5118 85.9119C90.4633 86.3185 90.2514 86.3669 89.5947 86.3573C88.9592 86.3476 88.7156 86.2895 87.8788 85.941C86.3219 85.2924 85.4216 85.1278 83.8328 85.1859C82.4135 85.2343 82.1063 85.3021 80.1151 86.0668C78.8546 86.5509 78.4945 86.5315 76.9269 85.9313C76.2279 85.6602 75.3593 85.3795 74.9992 85.3021C74.1095 85.1084 72.203 85.1278 71.3239 85.3311ZM70.6354 88.5063L71.4828 88.2256C72.2348 87.9835 72.4466 87.9642 73.3893 87.9932C74.332 88.0223 74.5544 88.061 75.4017 88.3901L75.6182 88.4721C76.7595 88.9045 77.1981 89.0707 77.6512 89.1345C77.9341 89.1743 78.2226 89.1743 78.6911 89.1743H78.7382C79.9244 89.1743 79.988 89.1646 80.9095 88.7967C82.8795 88.0223 83.2291 87.9351 84.4048 87.9835C85.3898 88.0223 85.5593 88.061 86.735 88.516C88.3449 89.1452 88.6733 89.2227 89.6477 89.2227C90.6221 89.2227 90.9505 89.1452 92.5604 88.5257C93.6938 88.0804 93.9374 88.0223 94.7953 87.9835C95.8121 87.9351 96.8501 88.09 96.8501 88.2836C96.8501 88.3514 96.6383 88.8354 96.3841 89.3679L95.9286 90.336L94.933 90.3553C93.7044 90.3844 92.6346 90.6264 91.1835 91.2072C90.495 91.4783 89.9337 91.6429 89.6689 91.6429C89.4041 91.6429 88.8215 91.4783 88.1437 91.2169C86.7561 90.6748 86.0465 90.4909 84.9873 90.3941C83.3456 90.2392 82.0746 90.4812 79.7444 91.3912C78.8335 91.7397 78.5051 91.7106 77.054 91.1588C76.3656 90.8975 75.4759 90.607 75.0734 90.5199C74.1307 90.3166 72.3407 90.3166 71.398 90.5199C70.9956 90.607 70.6566 90.6748 70.6248 90.6748C70.5931 90.6748 70.5931 90.1811 70.6037 89.5906L70.6354 88.5063ZM71.9064 90.9362C71.7899 90.9556 71.4404 91.0427 71.1438 91.1201L70.5824 91.2653V91.701C70.5824 92.0882 70.6036 92.1366 70.7731 92.0785C71.7793 91.7203 73.8553 91.6332 74.9674 91.8946C75.317 91.972 76.1114 92.2528 76.7257 92.4948C77.7531 92.9111 77.9014 92.9498 78.6852 92.9498C79.469 92.9498 79.6278 92.9111 80.6976 92.4851C82.1805 91.8946 82.8795 91.7397 84.1929 91.7397C85.4745 91.7397 86.1418 91.8849 87.6352 92.4851C88.6732 92.9111 88.8109 92.9401 89.6477 92.9401C90.4844 92.9401 90.6221 92.9111 91.6601 92.4851C92.9947 91.9527 93.8315 91.7397 94.6258 91.7397H95.219L95.452 91.3041L95.685 90.8684H94.8589C93.7891 90.8684 92.9947 91.0524 91.4589 91.6429C89.7854 92.2818 89.51 92.2915 87.8577 91.6429C86.2689 91.033 85.5063 90.8684 84.1929 90.8684C82.8689 90.8684 82.1169 91.033 80.4964 91.6526C78.8864 92.2721 78.4733 92.2721 76.8951 91.6526C75.3911 91.062 74.4696 90.8684 73.188 90.8781C72.5949 90.8878 72.0229 90.9072 71.9064 90.9362ZM71.1014 94.0728C71.398 93.9566 71.8111 93.8308 72.0335 93.7727C72.2559 93.7243 72.8914 93.6952 73.4422 93.7146C74.3319 93.734 74.565 93.7824 75.4017 94.1115C77.4142 94.886 77.7319 94.9537 78.897 94.915C79.8291 94.8763 80.0727 94.8279 80.9094 94.5084C82.6783 93.8308 83.0172 93.7436 83.8963 93.6952C84.9661 93.6371 85.411 93.734 87.0527 94.3826L88.3237 94.886H89.6477H90.9717L92.2639 94.3729C92.9735 94.0921 93.7044 93.8404 93.895 93.8017L94.2339 93.7436L93.4925 95.0312L92.7511 96.3284L91.4377 96.8318C89.7642 97.4804 89.5524 97.4901 88.0907 96.9189C86.449 96.2703 85.591 96.0961 84.1929 96.0961C82.763 96.0961 81.8521 96.2897 80.2527 96.9286C78.8652 97.4804 78.5263 97.4707 77.0223 96.8802C75.5076 96.28 74.5755 96.0961 73.188 96.1057C72.4254 96.1057 71.7581 96.1638 71.3027 96.28L70.5824 96.4446V95.3603V94.2761L71.1014 94.0728ZM71.9594 96.6382C71.8111 96.6672 71.4404 96.7544 71.1438 96.8318L70.5824 96.977V97.4127C70.5824 97.8289 70.593 97.858 70.826 97.7999C72.1077 97.4611 72.3725 97.432 73.5481 97.4707C74.8403 97.5191 75.1793 97.6063 77.1493 98.3614C78.4839 98.8745 79.0241 98.8551 80.6341 98.2258C82.191 97.6256 82.9854 97.4514 84.1929 97.4514C85.411 97.4514 86.2265 97.6353 87.6247 98.2065C88.6732 98.6324 88.8004 98.6615 89.6477 98.6615C90.9399 98.6615 91.5436 98.4001 91.9779 97.6644C92.1474 97.3739 92.2745 97.1126 92.2639 97.0932C92.2427 97.0835 91.7872 97.2384 91.2471 97.4514C89.8807 97.9935 89.4041 97.9838 87.9 97.3933C86.3642 96.7931 85.3792 96.5801 84.2035 96.5801C82.996 96.5801 81.8627 96.8221 80.5387 97.3643C79.7655 97.6837 79.363 97.7902 78.8335 97.8192C78.1873 97.858 78.0391 97.8289 77.0328 97.4223C75.3699 96.7641 74.9251 96.6672 73.4952 96.6285C72.7961 96.6092 72.1077 96.6188 71.9594 96.6382ZM71.1438 99.7941C71.4404 99.6779 71.864 99.5424 72.0653 99.494C72.2665 99.4359 72.8703 99.4069 73.3893 99.4262C74.3849 99.4553 74.6179 99.5134 76.4397 100.21C78.2509 100.898 79.3101 100.869 81.3861 100.065C82.9113 99.4746 83.5256 99.3488 84.5742 99.4166C85.1885 99.4553 85.6122 99.5521 86.3218 99.8231C87.8259 100.404 88.5991 100.627 89.3087 100.704C89.6689 100.733 89.9654 100.791 89.9654 100.811C89.9654 100.975 88.6203 102.863 88.5355 102.824C86.5972 102.05 85.591 101.808 84.2141 101.808C82.9431 101.808 81.8733 102.03 80.4116 102.592C78.8229 103.202 78.5581 103.211 77.1176 102.64C75.3064 101.924 74.978 101.856 73.1774 101.866C72.0335 101.866 71.451 101.914 71.0908 102.021L70.5824 102.176V101.082V99.9877L71.1438 99.7941ZM72.1182 102.35C72.0557 102.36 71.9137 102.393 71.7398 102.433C71.5899 102.468 71.4164 102.508 71.2497 102.543L70.5824 102.698V103.134C70.5824 103.541 70.6036 103.57 70.826 103.512C72.902 102.96 74.4802 103.057 76.5986 103.889C78.4945 104.634 78.897 104.634 80.7612 103.908C83.1549 102.979 84.9237 102.921 87.0845 103.715L87.7835 103.967L88.0271 103.686C88.1542 103.531 88.2602 103.366 88.239 103.318C88.1754 103.144 86.2265 102.505 85.3898 102.389C83.7163 102.147 82.3711 102.36 80.3269 103.173C79.0665 103.676 78.4733 103.705 77.4671 103.308C75.5394 102.563 74.7132 102.36 73.4952 102.33C72.8597 102.311 72.2348 102.321 72.1182 102.35ZM71.3556 105.448C71.7687 105.312 72.2348 105.186 72.383 105.167C72.9126 105.089 73.8235 105.109 74.2896 105.206C74.5438 105.254 75.317 105.515 75.9949 105.777C78.1238 106.609 79.1724 106.638 81.0366 105.922C82.8901 105.206 83.0702 105.157 84.14 105.157C84.9343 105.148 85.2945 105.196 85.8664 105.37C86.2583 105.496 86.5761 105.622 86.5761 105.641C86.5761 105.67 86.2583 106.096 85.877 106.59L85.1886 107.49L83.9493 107.548C82.4982 107.606 81.8415 107.752 80.3269 108.352C78.9923 108.884 78.5581 108.913 77.573 108.536C75.9737 107.926 75.5924 107.8 74.8615 107.665C73.6011 107.432 71.7158 107.519 70.7731 107.858C70.593 107.926 70.5824 107.839 70.5824 106.813V105.699L71.3556 105.448ZM72.2242 108.061C72.1077 108.09 71.6946 108.178 71.3027 108.255L70.5824 108.41V108.875V109.339L71.2497 109.146C72.8491 108.691 74.6603 108.846 76.5774 109.601C78.4945 110.365 78.8758 110.375 80.5917 109.697C81.8098 109.213 82.5618 109.01 83.4303 108.913C83.9705 108.855 84.0764 108.807 84.3518 108.487C84.5319 108.284 84.6695 108.09 84.6695 108.052C84.6695 107.936 82.9749 108.071 82.2546 108.236C81.9051 108.323 81.1001 108.594 80.4646 108.846C78.9076 109.465 78.4733 109.465 76.9163 108.846C76.302 108.594 75.5076 108.323 75.1687 108.236C74.5544 108.09 72.6267 107.974 72.2242 108.061ZM71.0167 111.285C71.2603 111.179 71.7475 111.024 72.1077 110.956C73.3787 110.704 74.2578 110.82 75.8466 111.45C78.1344 112.35 79.2783 112.389 81.2166 111.585L81.9474 111.295L81.4285 111.847C81.1531 112.156 80.4434 112.902 79.8609 113.502C79.7975 113.568 79.7378 113.631 79.6814 113.691C79.205 114.193 78.9611 114.45 78.6731 114.517C78.3716 114.587 78.0214 114.448 77.3047 114.165C77.2163 114.13 77.1224 114.093 77.0223 114.054C75.6135 113.502 74.8827 113.337 73.6541 113.27C72.722 113.221 71.3239 113.366 70.7731 113.57C70.593 113.638 70.5824 113.55 70.5824 112.563V111.488L71.0167 111.285ZM71.4274 113.942L71.4264 113.942L71.3027 113.967L70.5824 114.122V114.596V115.061L70.9849 114.935C71.7263 114.693 72.9338 114.557 73.7812 114.625C74.7132 114.693 75.5606 114.915 76.7786 115.399L77.626 115.738L77.9649 115.438C78.1556 115.264 78.2933 115.109 78.2615 115.09C78.1873 115.022 76.5456 114.402 75.7724 114.151C74.6709 113.783 73.2728 113.638 72.2771 113.783C72.1444 113.8 71.7828 113.872 71.4274 113.942ZM71.0697 116.997C71.3345 116.89 71.8429 116.735 72.203 116.668C72.5631 116.6 73.008 116.532 73.1774 116.532C73.6647 116.522 74.8298 116.774 75.4547 117.016L75.9949 117.229L75.0628 118.091L74.1307 118.943H73.4316C72.7749 118.943 71.1438 119.156 70.7519 119.291C70.6036 119.339 70.5824 119.223 70.5824 118.275V117.19L71.0697 116.997ZM72.2242 119.533C71.8747 119.572 71.3769 119.669 71.1121 119.736C70.646 119.862 70.6354 119.882 70.6037 120.308L70.5719 120.743L71.4934 120.53C72.2984 120.356 72.4996 120.259 72.955 119.882L73.4952 119.436L73.1775 119.446C73.008 119.446 72.5737 119.485 72.2242 119.533Z" fill="black"/>
</svg>
