<svg width="33" height="24" viewBox="0 0 33 24" fill="none" xmlns="http://www.w3.org/2000/svg">
<path d="M7.68539 24C6.08989 24 4.61798 23.7079 3.26966 23.1236C1.94382 22.5169 0.853933 21.6629 0 20.5618L3.03371 16.9213C4.31461 18.6517 5.77528 19.5169 7.41573 19.5169C9.64045 19.5169 10.7528 18.2135 10.7528 15.6067V4.38202H2.46067V0H16.1798V15.3034C16.1798 18.2022 15.4607 20.382 14.0225 21.8427C12.5843 23.2809 10.4719 24 7.68539 24Z" fill="white"/>
<path d="M18.8812 14.3258L15.7127 17.6292L15.7127 11.0225L26.1621 0H32.2296L22.4543 10.5169L32.8026 23.5955H26.4318L18.8812 14.3258Z" fill="white"/>
</svg>
